<?xml version="1.0" standalone="no"?>
<!DOCTYPE svg PUBLIC "-//W3C//DTD SVG 20010904//EN"
 "http://www.w3.org/TR/2001/REC-SVG-20010904/DTD/svg10.dtd">
<svg version="1.0" xmlns="http://www.w3.org/2000/svg"
 width="211.000000pt" height="211.000000pt" viewBox="0 0 211.000000 211.000000"
 preserveAspectRatio="xMidYMid meet">
<metadata>
Created by potrace 1.11, written by Peter Selinger 2001-2013
</metadata>
<g transform="translate(0.000000,211.000000) scale(0.100000,-0.100000)"
fill="#000000" stroke="none">
<path d="M838 2090 c-10 -6 -18 -7 -18 -3 0 4 -4 3 -8 -2 -8 -12 -62 -39 -78
-40 -6 0 -18 -6 -27 -13 -9 -8 -22 -15 -29 -16 -7 -2 -24 -8 -38 -13 -14 -6
-29 -11 -34 -11 -5 0 -12 -5 -16 -12 -4 -6 -16 -12 -28 -13 -11 0 -18 -5 -16
-9 3 -4 0 -8 -6 -8 -6 0 -36 -11 -66 -25 -31 -14 -58 -23 -62 -21 -4 2 -16 -2
-27 -10 -10 -8 -16 -14 -12 -14 4 0 -1 -9 -10 -19 -64 -71 -167 -181 -215
-232 -32 -33 -58 -63 -58 -67 0 -5 -17 -23 -37 -41 -37 -32 -38 -34 -35 -98 1
-35 -1 -62 -5 -60 -5 3 -9 -114 -10 -259 -2 -184 1 -264 8 -264 6 0 9 -6 6
-14 -3 -8 -1 -16 4 -18 6 -2 11 -18 11 -36 1 -17 5 -32 10 -32 4 0 8 -10 8
-23 0 -13 5 -28 10 -33 6 -6 12 -25 13 -42 1 -18 5 -32 8 -32 4 0 10 -17 14
-37 5 -21 10 -45 12 -53 2 -8 5 -21 5 -27 1 -7 5 -13 8 -13 4 0 10 -13 13 -29
7 -31 42 -71 64 -71 7 0 13 -4 13 -10 0 -5 7 -10 15 -10 7 0 19 -8 24 -17 6
-10 11 -14 11 -10 0 5 7 2 15 -5 25 -23 39 -32 92 -67 29 -18 50 -37 47 -42
-3 -5 -2 -8 3 -7 14 4 53 -13 53 -23 0 -5 6 -9 14 -9 8 0 16 -4 18 -8 2 -5 38
-32 81 -61 42 -28 77 -56 77 -61 0 -6 12 -10 26 -10 17 0 23 -4 18 -12 -6 -10
-4 -10 8 0 10 8 27 10 44 7 16 -4 61 -8 99 -9 39 -2 132 -7 208 -11 96 -5 137
-3 137 4 0 6 3 10 8 9 4 0 16 2 27 7 93 37 181 69 188 67 4 -1 7 2 7 8 0 5 7
10 15 10 8 0 35 9 59 21 25 11 51 22 58 23 7 1 31 10 53 20 22 10 48 19 58 21
10 2 32 11 50 20 18 9 39 18 47 20 8 2 22 5 30 7 13 3 43 34 46 48 3 18 36 80
44 85 6 4 8 10 5 14 -2 5 3 24 12 42 10 19 18 39 19 46 1 7 12 26 24 43 12 16
19 30 16 30 -3 0 0 14 5 30 6 17 15 30 21 30 5 0 7 4 3 9 -3 5 2 16 10 25 8 8
18 29 21 45 4 17 10 31 15 31 5 0 8 3 7 8 -2 13 28 73 34 66 4 -3 4 4 1 17 -4
13 -2 20 3 16 5 -3 11 2 12 11 7 47 11 553 5 549 -5 -3 -19 11 -32 30 -12 19
-17 32 -9 29 7 -4 3 1 -9 10 -13 9 -23 22 -23 28 0 6 -14 27 -30 46 -16 19
-30 39 -30 43 0 5 -13 27 -29 50 -16 23 -30 47 -32 52 -1 6 -7 15 -13 21 -21
22 -45 59 -45 68 1 5 -6 13 -15 18 -9 5 -14 13 -12 17 3 4 -17 21 -44 37 -27
16 -50 33 -50 37 0 5 -4 5 -10 2 -5 -3 -10 -1 -10 4 0 6 -7 11 -15 11 -8 0
-15 5 -15 10 0 6 -7 10 -15 10 -8 0 -15 5 -15 11 0 5 -4 8 -9 5 -5 -3 -14 1
-21 9 -7 8 -19 15 -26 15 -8 0 -14 5 -14 10 0 6 -4 10 -9 10 -12 0 -105 61
-109 72 -2 5 -7 6 -12 3 -5 -3 -15 2 -23 10 -9 8 -26 19 -39 23 -35 13 -530
14 -550 2z m76 -32 c-6 -10 -5 -10 7 -1 9 7 31 10 54 6 22 -3 68 -6 102 -7 34
0 64 -4 67 -7 4 -3 24 -4 46 -2 30 3 40 0 40 -10 0 -13 -43 -33 -62 -29 -5 1
-8 -3 -8 -10 0 -6 -3 -9 -6 -5 -4 3 -13 -1 -21 -9 -8 -8 -19 -12 -24 -9 -5 4
-9 3 -9 -2 0 -8 -52 -34 -67 -34 -4 0 -15 -7 -24 -15 -9 -8 -26 -17 -39 -19
-12 -2 -33 -11 -46 -20 -13 -8 -24 -12 -24 -9 0 4 -9 -1 -20 -11 -20 -18 -107
-35 -97 -18 3 5 -12 8 -34 7 -21 -1 -39 1 -39 5 0 3 -15 7 -32 8 -49 2 -92 8
-103 15 -6 3 -20 4 -32 3 -12 -1 -20 2 -17 7 4 5 12 7 20 4 8 -3 14 -1 14 5 0
6 5 7 10 4 6 -3 10 -1 10 5 0 6 4 9 9 6 5 -4 11 -2 13 3 1 5 12 11 23 13 11 1
22 6 25 10 3 3 12 8 20 10 8 2 21 9 28 16 7 6 22 12 32 12 10 0 22 5 25 11 4
6 14 8 22 5 8 -3 12 -2 9 3 -5 7 24 21 37 19 1 0 22 11 47 25 53 31 53 31 44
15z m466 -33 c5 3 16 -3 26 -12 10 -10 20 -18 23 -19 17 -2 61 -28 61 -36 0
-5 4 -7 8 -4 5 3 18 -4 30 -14 12 -11 24 -20 27 -20 8 0 89 -53 96 -63 3 -5 9
-7 12 -5 4 1 15 -5 27 -14 11 -10 20 -15 20 -11 0 4 8 -2 18 -13 16 -17 18
-36 17 -164 -1 -80 -3 -147 -5 -150 -1 -3 -2 -60 -1 -128 l1 -123 -33 -12
c-17 -6 -36 -10 -40 -9 -5 1 -6 -1 -3 -6 4 -7 -100 -61 -115 -58 -3 1 -13 -7
-23 -17 -10 -9 -22 -15 -27 -12 -5 4 -9 2 -9 -3 0 -9 -37 -25 -52 -23 -5 1 -8
-4 -8 -10 0 -6 -7 -8 -17 -5 -10 4 -14 4 -10 0 6 -6 -35 -33 -58 -38 -5 -1
-20 -7 -32 -14 -22 -12 -53 -7 -53 9 0 5 -6 9 -14 9 -8 0 -28 13 -45 29 -16
15 -33 26 -35 23 -3 -3 -8 3 -12 12 -3 9 -12 16 -20 16 -7 0 -20 10 -29 23 -8
12 -17 20 -19 17 -3 -3 -16 5 -30 18 -15 12 -29 22 -32 22 -7 0 -88 63 -92 73
-2 4 -8 7 -13 7 -6 0 -18 8 -29 18 -17 15 -18 29 -14 137 2 66 5 173 6 238 2
113 3 117 24 117 12 0 24 3 26 8 3 6 72 43 91 48 4 1 10 3 15 4 4 1 11 1 17 0
5 -1 6 2 2 6 -10 10 62 46 76 37 5 -3 7 -1 3 5 -6 9 14 20 48 26 6 1 22 8 36
16 83 46 145 74 148 68 2 -5 7 -6 12 -3z m-902 -188 c7 3 18 1 25 -5 7 -5 24
-7 40 -5 15 2 27 0 27 -4 0 -5 15 -9 33 -9 17 -1 57 -5 87 -8 30 -4 61 -8 68
-8 6 -1 12 -5 12 -9 0 -4 6 -7 13 -6 45 1 44 3 41 -125 -1 -68 -4 -178 -5
-245 -2 -68 -6 -123 -11 -123 -4 0 -8 -4 -8 -9 0 -9 -24 -41 -62 -82 -10 -10
-18 -22 -18 -25 0 -4 -12 -17 -27 -30 -16 -13 -25 -24 -21 -24 9 0 -13 -28
-55 -71 -16 -16 -26 -29 -23 -29 3 0 -3 -10 -13 -22 -59 -69 -71 -83 -71 -88
0 -8 -51 -11 -63 -3 -6 3 -50 7 -98 7 -48 1 -90 3 -93 6 -3 3 -39 5 -81 3 -41
-1 -74 1 -71 5 2 4 -10 7 -27 7 -29 0 -32 3 -33 33 -1 17 2 32 5 32 3 0 5 43
5 95 -1 52 1 95 5 95 3 0 7 39 8 87 4 170 6 182 38 220 34 40 135 149 210 226
28 29 63 69 79 89 23 30 31 35 49 29 12 -5 28 -6 35 -4z m1358 -145 c-3 -2 2
-11 10 -19 8 -8 11 -19 8 -25 -4 -6 -3 -8 3 -5 10 6 73 -84 73 -104 0 -5 5 -9
10 -9 6 0 10 -7 10 -15 0 -8 5 -15 10 -15 6 0 10 -9 10 -21 0 -11 5 -17 10
-14 6 3 10 -1 10 -9 0 -9 5 -16 10 -16 6 0 10 -7 10 -15 0 -8 5 -15 10 -15 6
0 10 -7 10 -15 0 -8 5 -15 10 -15 6 0 10 -7 10 -15 0 -8 5 -15 11 -15 5 0 8
-4 4 -9 -3 -5 -1 -12 5 -16 6 -4 8 -24 4 -51 -7 -51 -13 -147 -16 -250 -1 -50
-6 -71 -15 -71 -7 0 -13 4 -13 8 0 5 -10 19 -22 32 -21 23 -38 43 -88 107 -11
14 -30 35 -42 48 -12 12 -19 22 -15 22 4 0 -2 11 -15 25 -13 13 -30 32 -38 42
-18 21 -22 105 -6 115 8 6 7 8 -1 8 -16 0 -14 70 1 70 7 0 6 4 -2 8 -8 6 -10
21 -6 48 3 21 6 85 7 142 0 99 1 102 19 85 10 -9 16 -18 14 -21z m-946 -440
c0 -4 18 -18 40 -32 22 -14 40 -28 40 -32 0 -5 6 -8 13 -8 6 0 29 -16 51 -35
21 -19 42 -35 47 -35 4 0 20 -11 34 -25 14 -14 25 -23 25 -20 0 5 12 -3 45
-32 7 -7 17 -13 21 -13 3 0 15 -9 25 -21 17 -19 17 -23 2 -45 -8 -13 -20 -21
-26 -17 -6 4 -7 1 -2 -6 4 -7 -1 -20 -11 -31 -31 -31 -44 -49 -44 -59 0 -5 -4
-11 -8 -13 -8 -3 -62 -74 -111 -146 -8 -12 -19 -18 -24 -15 -6 3 -7 1 -3 -5 9
-14 -33 -72 -51 -72 -8 0 -16 7 -19 15 -4 8 -10 15 -16 15 -5 0 -15 6 -23 12
-30 29 -56 48 -65 48 -6 0 -10 4 -10 9 0 5 -9 13 -20 16 -11 3 -20 14 -20 22
0 9 -3 13 -7 10 -6 -7 -94 59 -101 75 -2 5 -7 6 -12 3 -5 -3 -17 6 -28 20 -11
13 -22 22 -25 18 -4 -3 -9 2 -13 11 -3 9 -12 16 -20 16 -21 0 -17 12 13 37 14
13 22 23 18 23 -5 0 0 8 11 19 10 10 30 33 44 51 14 18 37 46 53 63 15 17 27
35 27 40 0 4 5 5 10 2 6 -4 9 -3 8 2 -4 15 23 54 34 47 6 -4 8 -3 5 2 -3 6 9
26 28 46 18 20 30 39 27 42 -3 3 4 6 16 6 12 0 22 -3 22 -8z m908 -92 c9 -12
25 -30 35 -38 9 -9 17 -20 17 -25 0 -4 11 -19 25 -33 14 -14 22 -30 19 -36 -4
-6 -2 -8 4 -4 6 3 21 -8 33 -26 13 -18 27 -34 31 -36 4 -2 8 -8 8 -13 0 -6 12
-21 26 -34 15 -14 23 -25 18 -25 -5 0 -1 -5 8 -10 14 -9 15 -15 6 -43 -6 -17
-15 -35 -20 -38 -6 -3 -10 -10 -10 -15 -2 -22 -21 -64 -30 -64 -5 0 -7 -4 -4
-9 9 -14 -5 -42 -18 -34 -6 3 -8 3 -4 -2 4 -4 3 -14 -3 -22 -6 -7 -8 -13 -4
-13 4 0 0 -11 -9 -25 -9 -13 -16 -31 -16 -39 0 -8 -7 -22 -16 -30 -8 -9 -13
-16 -9 -16 3 0 -1 -10 -9 -22 -9 -12 -16 -31 -16 -41 0 -11 -4 -15 -12 -11 -6
4 -8 3 -5 -4 6 -9 -8 -45 -49 -122 -8 -15 -21 -25 -33 -24 -11 1 -18 -2 -16
-7 5 -7 -17 -17 -49 -23 -6 -1 -29 -10 -51 -20 -22 -10 -44 -19 -50 -20 -5 -1
-20 -8 -32 -14 -13 -7 -23 -11 -23 -8 0 3 -19 -3 -42 -14 -23 -10 -46 -16 -52
-13 -5 3 -6 1 -2 -5 6 -11 -12 -17 -36 -13 -5 0 -8 -4 -8 -10 0 -5 -4 -8 -9
-4 -5 3 -13 0 -16 -6 -4 -5 -14 -8 -23 -4 -9 3 -13 3 -9 -1 8 -8 -89 -46 -116
-46 -9 1 -15 -3 -12 -9 4 -5 0 -9 -9 -9 -15 0 -57 80 -68 130 -1 3 -8 11 -15
18 -12 12 -18 42 -14 65 1 5 -3 6 -9 2 -9 -5 -15 15 -11 38 0 4 -3 7 -8 7 -8
0 -24 37 -22 53 1 4 -4 7 -10 7 -5 0 -8 4 -4 9 3 5 1 12 -5 16 -6 4 -8 11 -5
16 4 5 1 9 -5 9 -7 0 -10 7 -6 15 3 8 1 15 -4 15 -6 0 -10 9 -10 20 0 11 -4
20 -10 20 -20 0 -5 30 36 75 12 13 20 26 17 29 -3 2 5 9 16 16 12 6 19 15 16
20 -3 4 -2 10 2 12 5 1 21 22 37 45 16 24 33 40 39 36 6 -3 7 -1 3 5 -6 10 6
30 44 71 8 9 21 29 29 43 8 15 19 25 24 21 6 -3 7 -1 4 4 -4 6 5 23 18 39 14
16 25 32 25 35 0 6 88 51 100 52 3 0 22 11 43 24 20 13 37 20 37 17 0 -4 6 -2
13 4 25 20 107 62 107 55 0 -4 4 -3 8 2 10 15 68 45 74 39 3 -2 11 2 18 10 17
21 68 13 88 -14z m-1605 -297 c56 -2 130 -4 165 -4 34 0 60 -3 58 -7 -2 -4 24
-7 59 -8 40 0 68 -6 78 -15 8 -8 29 -25 47 -39 18 -14 38 -31 45 -37 8 -7 17
-13 21 -13 4 0 14 -7 23 -15 31 -30 76 -65 84 -65 5 0 5 -6 1 -12 -4 -7 -4
-10 1 -6 11 11 47 -11 39 -24 -4 -7 -3 -8 4 -4 7 4 12 3 12 -1 0 -5 10 -13 23
-18 12 -6 21 -16 19 -23 -1 -7 5 -12 15 -10 10 2 27 -12 44 -37 15 -22 27 -42
26 -45 -1 -3 4 -15 11 -26 6 -12 8 -24 5 -28 -3 -3 -1 -6 6 -6 8 0 11 -7 7
-15 -3 -8 -1 -15 5 -15 6 0 8 -7 5 -16 -3 -8 -2 -13 3 -10 7 5 23 -28 18 -37
-1 -1 6 -15 16 -32 35 -63 76 -168 70 -178 -3 -6 -1 -7 5 -3 12 7 13 6 17 -32
2 -17 -3 -22 -21 -22 -13 0 -24 3 -24 8 0 4 -35 8 -77 9 -201 4 -239 6 -248
11 -5 4 -23 7 -40 9 -16 1 -38 12 -47 24 -10 11 -18 17 -18 13 0 -5 -7 0 -15
10 -8 11 -15 16 -15 10 0 -5 -4 -4 -8 1 -4 6 -35 28 -69 50 -34 22 -59 44 -56
49 4 5 1 6 -5 2 -6 -3 -23 6 -38 21 -14 16 -23 22 -19 14 5 -8 -9 -1 -31 15
-52 39 -62 47 -79 62 -8 7 -15 11 -15 7 0 -4 -7 0 -15 7 -25 23 -39 33 -67 47
-15 8 -25 18 -22 23 3 4 0 8 -7 8 -7 0 -10 3 -6 6 3 4 0 19 -9 35 -8 16 -12
29 -8 29 4 0 1 7 -6 15 -7 8 -10 15 -7 15 3 0 -5 31 -18 70 -13 39 -21 70 -18
70 3 0 0 7 -7 15 -7 8 -10 15 -7 15 3 0 -1 16 -9 35 -8 20 -12 40 -9 45 4 6 2
10 -3 10 -10 0 -22 46 -14 54 3 3 9 3 14 0 5 -3 55 -8 111 -11z"/>
</g>
</svg>
